<mxfile host="app.diagrams.net" agent="Mozilla/5.0 (Macintosh; Intel Mac OS X 10_15_7) AppleWebKit/537.36 (KHTML, like Gecko) Chrome/128.0.0.0 Safari/537.36" version="24.7.12">
  <diagram name="第 1 页" id="vBUxJIJHRVA6n1EVzTht">
    <mxGraphModel dx="1434" dy="707" grid="1" gridSize="10" guides="1" tooltips="1" connect="1" arrows="1" fold="1" page="1" pageScale="1" pageWidth="827" pageHeight="1169" math="0" shadow="0">
      <root>
        <mxCell id="0" />
        <mxCell id="1" parent="0" />
        <mxCell id="xPIvN_n2SB14Lw0o-Oi9-8" value="" style="edgeStyle=orthogonalEdgeStyle;rounded=0;orthogonalLoop=1;jettySize=auto;html=1;" edge="1" parent="1" source="xPIvN_n2SB14Lw0o-Oi9-1" target="xPIvN_n2SB14Lw0o-Oi9-7">
          <mxGeometry relative="1" as="geometry" />
        </mxCell>
        <mxCell id="xPIvN_n2SB14Lw0o-Oi9-1" value="" style="verticalLabelPosition=bottom;shadow=0;dashed=0;align=center;html=1;verticalAlign=top;strokeWidth=1;shape=mxgraph.mockup.containers.userMale;strokeColor=#666666;strokeColor2=#008cff;" vertex="1" parent="1">
          <mxGeometry x="320" y="10" width="70" height="60" as="geometry" />
        </mxCell>
        <mxCell id="xPIvN_n2SB14Lw0o-Oi9-13" value="" style="edgeStyle=orthogonalEdgeStyle;rounded=0;orthogonalLoop=1;jettySize=auto;html=1;" edge="1" parent="1" source="xPIvN_n2SB14Lw0o-Oi9-2" target="xPIvN_n2SB14Lw0o-Oi9-12">
          <mxGeometry relative="1" as="geometry" />
        </mxCell>
        <mxCell id="xPIvN_n2SB14Lw0o-Oi9-2" value="" style="sketch=0;points=[[0,0,0],[0.25,0,0],[0.5,0,0],[0.75,0,0],[1,0,0],[0,1,0],[0.25,1,0],[0.5,1,0],[0.75,1,0],[1,1,0],[0,0.25,0],[0,0.5,0],[0,0.75,0],[1,0.25,0],[1,0.5,0],[1,0.75,0]];outlineConnect=0;fontColor=#232F3E;fillColor=#DD344C;strokeColor=#ffffff;dashed=0;verticalLabelPosition=bottom;verticalAlign=top;align=center;html=1;fontSize=12;fontStyle=0;aspect=fixed;shape=mxgraph.aws4.resourceIcon;resIcon=mxgraph.aws4.waf;" vertex="1" parent="1">
          <mxGeometry x="310" y="230" width="90" height="90" as="geometry" />
        </mxCell>
        <mxCell id="xPIvN_n2SB14Lw0o-Oi9-18" value="" style="rounded=0;whiteSpace=wrap;html=1;" vertex="1" parent="1">
          <mxGeometry x="160" y="410" width="440" height="110" as="geometry" />
        </mxCell>
        <mxCell id="xPIvN_n2SB14Lw0o-Oi9-4" value="" style="sketch=0;outlineConnect=0;fontColor=#232F3E;gradientColor=none;fillColor=#C925D1;strokeColor=none;dashed=0;verticalLabelPosition=bottom;verticalAlign=top;align=center;html=1;fontSize=12;fontStyle=0;aspect=fixed;pointerEvents=1;shape=mxgraph.aws4.rds_mysql_instance;" vertex="1" parent="1">
          <mxGeometry x="510" y="426" width="78" height="78" as="geometry" />
        </mxCell>
        <mxCell id="xPIvN_n2SB14Lw0o-Oi9-5" value="" style="image;sketch=0;aspect=fixed;html=1;points=[];align=center;fontSize=12;image=img/lib/mscae/Cache_Redis_Product.svg;" vertex="1" parent="1">
          <mxGeometry x="420" y="435" width="71.43" height="60" as="geometry" />
        </mxCell>
        <mxCell id="xPIvN_n2SB14Lw0o-Oi9-9" value="" style="edgeStyle=orthogonalEdgeStyle;rounded=0;orthogonalLoop=1;jettySize=auto;html=1;" edge="1" parent="1" source="xPIvN_n2SB14Lw0o-Oi9-7" target="xPIvN_n2SB14Lw0o-Oi9-2">
          <mxGeometry relative="1" as="geometry" />
        </mxCell>
        <mxCell id="xPIvN_n2SB14Lw0o-Oi9-7" value="" style="image;aspect=fixed;html=1;points=[];align=center;fontSize=12;image=img/lib/azure2/networking/DNS_Security_Policy.svg;" vertex="1" parent="1">
          <mxGeometry x="321" y="120" width="68" height="68" as="geometry" />
        </mxCell>
        <mxCell id="xPIvN_n2SB14Lw0o-Oi9-11" value="通过阿里云dns解析到雷池waf" style="text;html=1;align=center;verticalAlign=middle;whiteSpace=wrap;rounded=0;" vertex="1" parent="1">
          <mxGeometry x="369" y="100" width="90" height="60" as="geometry" />
        </mxCell>
        <mxCell id="xPIvN_n2SB14Lw0o-Oi9-12" value="nginx" style="whiteSpace=wrap;html=1;aspect=fixed;" vertex="1" parent="1">
          <mxGeometry x="490" y="280" width="80" height="80" as="geometry" />
        </mxCell>
        <mxCell id="xPIvN_n2SB14Lw0o-Oi9-16" value="前端(vue2)" style="ellipse;whiteSpace=wrap;html=1;aspect=fixed;" vertex="1" parent="1">
          <mxGeometry x="190" y="420" width="80" height="80" as="geometry" />
        </mxCell>
        <mxCell id="xPIvN_n2SB14Lw0o-Oi9-17" value="后端(Django+Python3.10&lt;span style=&quot;background-color: initial;&quot;&gt;)&lt;/span&gt;" style="ellipse;whiteSpace=wrap;html=1;aspect=fixed;" vertex="1" parent="1">
          <mxGeometry x="305" y="420" width="80" height="80" as="geometry" />
        </mxCell>
        <mxCell id="xPIvN_n2SB14Lw0o-Oi9-23" value="" style="curved=1;endArrow=classic;html=1;rounded=0;" edge="1" parent="1">
          <mxGeometry width="50" height="50" relative="1" as="geometry">
            <mxPoint x="480" y="320" as="sourcePoint" />
            <mxPoint x="380" y="400" as="targetPoint" />
            <Array as="points">
              <mxPoint x="430" y="400" />
              <mxPoint x="380" y="350" />
            </Array>
          </mxGeometry>
        </mxCell>
      </root>
    </mxGraphModel>
  </diagram>
</mxfile>
